# xmcd
#
# Track frame offsets:
#	150
#	18690
#	41720
#	67942
#
# Disc length: 1148 seconds
#
# Revision: 1
# Processed by: cddbd v1.5.1PL0 Copyright (c) Steve Scherf et al.
# Submitted via: CDex 1.50Beta5
#
DISCID=2f047a04
DTITLE=宇多田ヒカル - COLORS
DYEAR=2003
DGENRE=Pop
TTITLE0=COLORS
TTITLE1=Simple And Clean
TTITLE2=Simple And Clean -PLANITb Remix-
TTITLE3=COLORS -Original Karaoke-
EXTD=CD-Extra仕様
EXTT0=
EXTT1=
EXTT2=
EXTT3=
PLAYORDER=
